
nColumns=19
nRows=103
DataType=double
version=3
OpenSimVersion=4.4-2022-10-11-798caa840
endheader
time	ground_force_calcn_r_vx	ground_force_calcn_r_vy	ground_force_calcn_r_vz	ground_force_calcn_r_px	ground_force_calcn_r_py	ground_force_calcn_r_pz	ground_force_calcn_r_mx	ground_force_calcn_r_my	ground_force_calcn_r_mz	ground_force_calcn_l_vx	ground_force_calcn_l_vy	ground_force_calcn_l_vz	ground_force_calcn_l_px	ground_force_calcn_l_py	ground_force_calcn_l_pz	ground_force_calcn_l_mx	ground_force_calcn_l_my	ground_force_calcn_l_mz
1.25	-17.6346	55.1182	-14.1205	-0.376556	0	-0.467302	0.0441828	-0.138097	0.0353784	0	0	0	0	0	0	0	0	0
1.26	-90.71639999999999	713.582	-65.991	-0.317803	0	-0.46985	0.0847922	-0.666981	0.0616814	0	0	0	0	0	0	0	0	0
1.27	-189.584	1475.47	-72.4537	-0.301194	0	-0.473107	0.342301	-2.66401	0.130818	0	0	0	0	0	0	0	0	0
1.28	-240.248	1175.97	10.9777	-0.291969	0	-0.478986	-0.0536335	0.262525	0.00245067	-43.0007	71.0671	31.5806	-0.258125	0	-0.75745	-0.116759	0.192966	0.0857499
1.29	-199.004	537.799	15.3304	-0.280862	0	-0.481103	-0.593839	1.60482	0.0457468	-146.323	496.836	85.91500000000001	-0.260985	0	-0.748296	-0.270943	0.919981	0.159087
1.3	-237.253	371.663	-63.4831	-0.246812	0	-0.462437	0.9778250000000001	-1.53178	0.261641	-88.7641	667.75	-23.8197	-0.266987	0	-0.73239	-0.163425	1.22941	-0.0438548
1.31	-274.895	507.176	-77.922	-0.239415	0	-0.464364	0.890752	-1.64342	0.252493	-15.3306	434.376	-81.39230000000001	-0.268244	0	-0.718173	-0.0512193	1.45124	-0.27193
1.32	-224.541	642.266	-47.6629	-0.246034	0	-0.470313	0.90512	-2.58896	0.192128	-57.7652	277.858	-9.885809999999999	-0.242369	0	-0.729555	-0.481851	2.31776	-0.08246290000000001
1.33	-170.756	679.582	-32.9559	-0.24874	0	-0.471927	1.01818	-4.0522	0.196509	-98.0356	216.484	16.8102	-0.210993	0	-0.737671	-0.265852	0.587059	0.0455857
1.34	-142.504	699.2190000000001	-23.9073	-0.249481	0	-0.4728	0.983353	-4.825	0.164974	-118.769	227.826	13.0266	-0.200648	0	-0.735178	-0.0774762	0.148617	0.008497589999999999
1.35	-113.585	735.412	-17.875	-0.252079	0	-0.473387	0.852326	-5.51844	0.134132	-122.968	301.758	18.7505	-0.213812	0	-0.734371	-0.142548	0.349805	0.021736
1.36	-93.07129999999999	725.0359999999999	-15.2054	-0.252893	0	-0.472793	0.762306	-5.93845	0.12454	-92.7705	404.491	18.7556	-0.232007	0	-0.732545	-0.259073	1.12959	0.0523772
1.37	-87.0103	665.869	-10.036	-0.250773	0	-0.471444	0.788006	-6.03042	0.0908906	-55.9639	484.881	12.784	-0.241992	0	-0.730824	-0.264119	2.28838	0.0603335
1.38	-78.9513	620.527	-4.90013	-0.24735	0	-0.470239	0.759262	-5.96751	0.0471237	-36.7163	510.057	17.459	-0.24316	0	-0.731393	-0.232787	3.23385	0.110693
1.39	-69.0921	619.903	-4.20663	-0.242805	0	-0.469151	0.633172	-5.6809	0.0385503	-43.0324	486.963	22.7532	-0.235621	0	-0.732774	-0.318351	3.60252	0.168327
1.4	-69.0334	638.413	-9.10751	-0.237413	0	-0.467636	0.567729	-5.2503	0.07489999999999999	-60.5557	453.889	22.0596	-0.223259	0	-0.733523	-0.528578	3.9619	0.192554
1.41	-66.26560000000001	660.676	-12.2872	-0.233511	0	-0.466402	0.50374	-5.02235	0.0934051	-70.80800000000001	442.352	17.3178	-0.213353	0	-0.73317	-0.782403	4.88784	0.191355
1.42	-52.5111	688.359	-9.81897	-0.231943	0	-0.466034	0.384957	-5.04634	0.07198259999999999	-73.77419999999999	450.448	11.9267	-0.207704	0	-0.732281	-0.965475	5.89497	0.156083
1.43	-37.6318	712.408	-6.29616	-0.230837	0	-0.465677	0.270975	-5.12985	0.0453369	-75.39	462.924	10.472	-0.203997	0	-0.731613	-1.05416	6.47297	0.146428
1.44	-29.9896	718.225	-4.73413	-0.228563	0	-0.465007	0.208808	-5.00079	0.0329624	-72.67610000000001	482.435	8.948919999999999	-0.202982	0	-0.730538	-1.04162	6.91446	0.12826
1.45	-28.8608	712.485	-4.8341	-0.22543	0	-0.464116	0.193538	-4.77786	0.032417	-62.2835	512.5069999999999	4.91132	-0.205044	0	-0.728945	-0.9139659999999999	7.52069	0.0720702
1.46	-29.3311	707.621	-2.85418	-0.222643	0	-0.463611	0.196691	-4.74522	0.0191398	-51.9233	539.783	2.21231	-0.207054	0	-0.727718	-0.766672	7.97015	0.0326658
1.47	-27.5736	705.6799999999999	0.442294	-0.221002	0	-0.463729	0.18687	-4.78249	-0.00299749	-49.0465	549.275	3.79192	-0.206672	0	-0.727539	-0.72059	8.069929999999999	0.0557108
1.48	-22.8507	707.439	2.35604	-0.220443	0	-0.463868	0.15165	-4.69496	-0.015636	-49.8703	546.849	7.28408	-0.205045	0	-0.727901	-0.729662	8.001049999999999	0.106575
1.49	-17.1162	711.333	3.06605	-0.220488	0	-0.463867	0.109929	-4.56856	-0.0196918	-48.2871	546.417	10.6058	-0.204387	0	-0.728281	-0.69754	7.89337	0.153208
1.5	-12.1348	711.201	4.02312	-0.220545	0	-0.463902	0.07678219999999999	-4.50008	-0.025456	-43.9171	549.715	13.6776	-0.20488	0	-0.728517	-0.62309	7.79928	0.194056
1.51	-9.459440000000001	702.478	5.34093	-0.22014	0	-0.463949	0.0599741	-4.4538	-0.0338622	-37.7858	554.299	16.4389	-0.205759	0	-0.728935	-0.531496	7.79678	0.23123
1.52	-9.489420000000001	686.127	5.76788	-0.219158	0	-0.463879	0.0604718	-4.37238	-0.0367561	-30.8071	558.7140000000001	18.3702	-0.20642	0	-0.7294620000000001	-0.434384	7.87793	0.259022
1.53	-10.8888	665.71	5.93323	-0.217637	0	-0.464121	0.0709799	-4.3395	-0.0386764	-26.3172	559.167	19.8275	-0.206016	0	-0.730168	-0.37589	7.98661	0.283197
1.54	-11.3997	646.557	7.47527	-0.21587	0	-0.46493	0.07910200000000001	-4.48643	-0.0518706	-25.4413	554.918	20.8725	-0.204281	0	-0.731058	-0.36707	8.00644	0.301151
1.55	-11.5303	629.054	9.506819999999999	-0.213957	0	-0.46618	0.0877426	-4.78695	-0.0723446	-25.7716	547.5359999999999	21.817	-0.201799	0	-0.731882	-0.372511	7.91427	0.31535
1.56	-13.2839	610.573	10.3274	-0.211806	0	-0.467211	0.109365	-5.0268	-0.0850243	-25.4539	537.622	22.8751	-0.199237	0	-0.732634	-0.371128	7.83875	0.333528
1.57	-13.726	593.2809999999999	9.59146	-0.209259	0	-0.467574	0.116106	-5.01846	-0.0811325	-21.9793	527.395	24.1084	-0.197003	0	-0.7331800000000001	-0.325082	7.80037	0.356573
1.58	-12.7507	579.54	7.06925	-0.205356	0	-0.467099	0.104639	-4.75602	-0.058014	-12.4561	520.292	25.6131	-0.19487	0	-0.733569	-0.182767	7.63417	0.375817
1.59	-15.7827	563.032	3.23499	-0.199174	0	-0.466333	0.121655	-4.33992	-0.0249357	-2.38467	516.086	28.4572	-0.191919	0	-0.734015	-0.0330239	7.14699	0.394088
1.6	-22.5273	543.076	-0.179667	-0.190956	0	-0.465835	0.164145	-3.95713	0.00130914	0.203894	511.748	31.5029	-0.187303	0	-0.734608	0.00259966	6.52481	0.401663
1.61	-30.2285	525.6079999999999	-1.76787	-0.182006	0	-0.465727	0.214781	-3.73456	0.0125611	-0.973069	504.986	32.294	-0.181857	0	-0.734805	-0.0116494	6.0456	0.386618
1.62	-36.4679	512.588	-2.1294	-0.173465	0	-0.466053	0.257282	-3.61632	0.015023	-2.28172	496.905	31.2484	-0.17614	0	-0.734381	-0.0260956	5.68302	0.357382
1.63	-41.3064	505.423	-1.92656	-0.166154	0	-0.466434	0.289369	-3.54071	0.0134964	-4.39916	491.669	28.7362	-0.170512	0	-0.733446	-0.0492788	5.50761	0.321898
1.64	-44.3709	503.168	-1.02638	-0.16054	0	-0.466819	0.317581	-3.60138	0.00734622	-6.49282	490.119	23.4107	-0.165923	0	-0.732093	-0.07456649999999999	5.62875	0.268859
1.65	-46.0251	501.144	-0.842682	-0.156143	0	-0.467184	0.332997	-3.62584	0.0060969	-8.843819999999999	487.931	18.4674	-0.162101	0	-0.730785	-0.103986	5.73713	0.217141
1.66	-47.7288	497.203	-1.98385	-0.152282	0	-0.467342	0.332548	-3.46425	0.0138224	-12.5937	484.116	16.4645	-0.158215	0	-0.730028	-0.143915	5.53222	0.188148
1.67	-49.3073	491.725	-3.13014	-0.148648	0	-0.467451	0.328925	-3.28026	0.0208809	-17.7446	480.137	16.2126	-0.154432	0	-0.729644	-0.187277	5.06737	0.171108
1.68	-51.584	486.254	-3.46279	-0.145052	0	-0.467634	0.340619	-3.21083	0.0228655	-23.3143	476.452	16.2402	-0.151118	0	-0.72943	-0.223267	4.5627	0.155523
1.69	-54.5838	482.711	-2.95054	-0.141946	0	-0.467932	0.364095	-3.21987	0.0196812	-28.7623	471.762	15.818	-0.148072	0	-0.729111	-0.250556	4.10964	0.137795
1.7	-56.4844	480.574	-2.28471	-0.13941	0	-0.468167	0.380073	-3.23369	0.0153734	-35.4331	467.092	14.6827	-0.145196	0	-0.728953	-0.278937	3.67704	0.115585
1.71	-58.3812	479.487	-2.26308	-0.137223	0	-0.468126	0.393666	-3.23319	0.01526	-43.8678	463.166	13.4652	-0.142356	0	-0.728913	-0.307801	3.24983	0.0944793
1.72	-61.4779	480.387	-2.98463	-0.135386	0	-0.467713	0.40511	-3.16552	0.0196673	-52.2158	457.304	12.4745	-0.140023	0	-0.728986	-0.323572	2.83384	0.0773025
1.73	-65.0907	482.12	-4.21821	-0.133832	0	-0.467122	0.411283	-3.04633	0.0266533	-58.7139	445.519	12.3838	-0.137749	0	-0.729332	-0.303903	2.306	0.06409860000000001
1.74	-68.05629999999999	482.026	-5.51005	-0.132403	0	-0.466379	0.403166	-2.85552	0.0326415	-62.9563	422.911	13.6758	-0.134889	0	-0.729949	-0.227568	1.5287	0.0494339
1.75	-70.6292	478.362	-7.03186	-0.131125	0	-0.46535	0.390346	-2.64376	0.0388629	-62.9697	383.869	15.9331	-0.131476	0	-0.73097	-0.111743	0.681195	0.0282741
1.76	-72.7428	467.09	-9.25062	-0.129959	0	-0.463792	0.369804	-2.37456	0.0470276	-55.0592	324.41	18.2211	-0.128004	0	-0.732912	-0.0141157	0.0831699	0.00467139
1.77	-71.211	439.322	-11.6443	-0.128822	0	-0.461909	0.30585	-1.88688	0.0500121	-38.2448	244.605	18.3741	-0.123665	0	-0.735254	0.00655292	-0.0419109	-0.00314825
1.78	-60.3708	384.768	-13.5762	-0.127679	0	-0.459412	0.192515	-1.22697	0.0432926	-15.6372	147.813	16.4108	-0.116443	0	-0.736547	-0.0170645	0.161304	0.0179087
1.79	-38.1366	300.85	-13.9553	-0.126253	0	-0.455719	0.0895165	-0.7061730000000001	0.0327568	0.955248	53.666	12.2121	-0.0978627	0	-0.728778	0.00285849	0.16059	0.0365436
1.8	-9.305199999999999	192.385	-11.2389	-0.123966	0	-0.451749	0.0240151	-0.496511	0.0290056	0	0	0	0	0	0	0	0	0
1.81	11.3178	80.55110000000001	-6.08374	-0.11949	0	-0.450411	-0.0446148	-0.317533	0.0239821	0	0	0	0	0	0	0	0	0
1.82	0	0	0	0	0	0	0	0	0	0	0	0	0	0	0	0	0	0
1.83	0	0	0	0	0	0	0	0	0	0	0	0	0	0	0	0	0	0
1.84	0	0	0	0	0	0	0	0	0	0	0	0	0	0	0	0	0	0
1.85	0	0	0	0	0	0	0	0	0	0	0	0	0	0	0	0	0	0
1.86	0	0	0	0	0	0	0	0	0	0	0	0	0	0	0	0	0	0
1.87	0	0	0	0	0	0	0	0	0	0	0	0	0	0	0	0	0	0
1.88	0	0	0	0	0	0	0	0	0	0	0	0	0	0	0	0	0	0
1.89	0	0	0	0	0	0	0	0	0	0	0	0	0	0	0	0	0	0
1.9	0	0	0	0	0	0	0	0	0	0	0	0	0	0	0	0	0	0
1.91	0	0	0	0	0	0	0	0	0	0	0	0	0	0	0	0	0	0
1.92	0	0	0	0	0	0	0	0	0	0	0	0	0	0	0	0	0	0
1.93	0	0	0	0	0	0	0	0	0	0	0	0	0	0	0	0	0	0
1.94	0	0	0	0	0	0	0	0	0	0	0	0	0	0	0	0	0	0
1.95	0	0	0	0	0	0	0	0	0	0	0	0	0	0	0	0	0	0
1.96	0	0	0	0	0	0	0	0	0	0	0	0	0	0	0	0	0	0
1.97	0	0	0	0	0	0	0	0	0	0	0	0	0	0	0	0	0	0
1.98	0	0	0	0	0	0	0	0	0	0	0	0	0	0	0	0	0	0
1.99	0	0	0	0	0	0	0	0	0	0	0	0	0	0	0	0	0	0
2	0	0	0	0	0	0	0	0	0	0	0	0	0	0	0	0	0	0
2.01	0	0	0	0	0	0	0	0	0	0	0	0	0	0	0	0	0	0
2.02	0	0	0	0	0	0	0	0	0	0	0	0	0	0	0	0	0	0
2.03	0	0	0	0	0	0	0	0	0	0	0	0	0	0	0	0	0	0
2.04	0	0	0	0	0	0	0	0	0	0	0	0	0	0	0	0	0	0
2.05	0	0	0	0	0	0	0	0	0	0	0	0	0	0	0	0	0	0
2.06	0	0	0	0	0	0	0	0	0	0	0	0	0	0	0	0	0	0
2.07	0	0	0	0	0	0	0	0	0	0	0	0	0	0	0	0	0	0
2.08	0	0	0	0	0	0	0	0	0	0	0	0	0	0	0	0	0	0
2.09	0	0	0	0	0	0	0	0	0	0	0	0	0	0	0	0	0	0
2.1	0	0	0	0	0	0	0	0	0	0	0	0	0	0	0	0	0	0
2.11	0	0	0	0	0	0	0	0	0	0	0	0	0	0	0	0	0	0
2.12	0	0	0	0	0	0	0	0	0	0	0	0	0	0	0	0	0	0
2.13	0	0	0	0	0	0	0	0	0	0	0	0	0	0	0	0	0	0
2.14	0	0	0	0	0	0	0	0	0	0	0	0	0	0	0	0	0	0
2.15	0	0	0	0	0	0	0	0	0	0	0	0	0	0	0	0	0	0
2.16	0	0	0	0	0	0	0	0	0	0	0	0	0	0	0	0	0	0
2.17	0	0	0	0	0	0	0	0	0	0	0	0	0	0	0	0	0	0
2.18	0	0	0	0	0	0	0	0	0	0	0	0	0	0	0	0	0	0
2.19	0	0	0	0	0	0	0	0	0	0	0	0	0	0	0	0	0	0
2.2	0	0	0	0	0	0	0	0	0	0	0	0	0	0	0	0	0	0
2.21	0	0	0	0	0	0	0	0	0	0	0	0	0	0	0	0	0	0
2.22	0	0	0	0	0	0	0	0	0	0	0	0	0	0	0	0	0	0
2.23	0	0	0	0	0	0	0	0	0	0	0	0	0	0	0	0	0	0
2.24	0	0	0	0	0	0	0	0	0	0	0	0	0	0	0	0	0	0
2.25	-15.2756	80.38849999999999	-10.8026	-0.0682918	0	-0.408623	-0.0310343	0.16332	-0.0219468	0	0	0	0	0	0	0	0	0
2.26	-72.7302	298.826	-39.7882	-0.0781232	0	-0.412102	-0.341629	1.40365	-0.186893	0	0	0	0	0	0	0	0	0
2.27	-21.9745	419.903	-38.8576	-0.0893784	0	-0.416396	-0.133572	2.55238	-0.236196	0	0	0	0	0	0	0	0	0
